  <svg
            width="81"
            height="105"
            viewBox="0 0 81 105"
            fill="none"
            xmlns="http://www.w3.org/2000/svg"
          >
            <path
              d="M79.2242 1.5V102.64"
              stroke="white"
              stroke-width="3"
              stroke-linecap="round"
            />
            <mask
              id="mask0_0_1"
              style="mask-type:luminance"
              maskUnits="userSpaceOnUse"
              x="-1"
              y="2"
              width="65"
              height="99"
            >
              <path
                d="M-0.261795 2.84824H63.86V100.888H-0.261795V2.84824Z"
                fill="white"
              />
            </mask>
            <g mask="url(#mask0_0_1)">
              <path
                d="M7.64775 66.6134L4.429 62.3448C-3.70371 51.5455 -0.23604 35.6669 11.5789 29.611L63.6798 2.89281V13.8936C63.6798 22.301 59.0791 29.9783 51.8348 33.6647L17.1967 51.2812C14.6732 52.5623 12.4673 54.4391 10.7978 56.7951C9.12409 59.1601 7.68638 62.3985 7.79796 66.4925C8.93954 65.5474 10.2013 64.7098 11.5746 64.0066L63.6798 37.2883V48.2892C63.6798 56.6966 59.0748 64.3738 51.8305 68.0602L17.1967 85.6723C14.6732 86.9533 12.4673 88.8346 10.7978 91.1861C9.07688 93.6183 7.60483 96.9732 7.81083 101.224L4.429 96.7403C-2.71662 87.249 -0.909833 73.8383 7.64775 66.6134ZM41.4918 89.1795L63.6626 101.233L63.654 71.115L41.5348 82.7384C39.0113 84.0687 38.9898 87.8178 41.4918 89.1795Z"
                fill="white"
              />
            </g>
          </svg>