<svg width="32" height="32" viewBox="0 0 32 32" fill="none" xmlns="http://www.w3.org/2000/svg">
<g clipPath="url(#clip0_2107_2520)">
<path d="M9.29249 15.2926L19.2925 5.29255C19.3854 5.19964 19.4957 5.12594 19.6171 5.07566C19.7385 5.02538 19.8686 4.9995 20 4.9995C20.1314 4.9995 20.2615 5.02538 20.3829 5.07566C20.5043 5.12594 20.6146 5.19964 20.7075 5.29255C20.8004 5.38546 20.8741 5.49576 20.9244 5.61716C20.9747 5.73855 21.0005 5.86866 21.0005 6.00005C21.0005 6.13145 20.9747 6.26156 20.9244 6.38295C20.8741 6.50434 20.8004 6.61464 20.7075 6.70755L11.4137 16.0001L20.7075 25.2926C20.8951 25.4802 21.0005 25.7347 21.0005 26.0001C21.0005 26.2654 20.8951 26.5199 20.7075 26.7076C20.5199 26.8952 20.2654 27.0006 20 27.0006C19.7346 27.0006 19.4801 26.8952 19.2925 26.7076L9.29249 16.7076C9.19952 16.6147 9.12576 16.5044 9.07543 16.383C9.02511 16.2616 8.99921 16.1315 8.99921 16.0001C8.99921 15.8686 9.02511 15.7385 9.07543 15.6171C9.12576 15.4957 9.19952 15.3854 9.29249 15.2926Z" fill="#5171FF"/>
</g>
<defs>
<clipPath id="clip0_2107_2520">
<rect x="32" y="32" width="32" height="32" rx="5" transform="rotate(180 32 32)" fill="white"/>
</clipPath>
</defs>
</svg>
